<!-- <svg width="" height="80vh" viewBox="0 0 823 857" fill="none" xmlns="http://www.w3.org/2000/svg">
                        <path
                            d="M378.854 52.5271L378.909 52.5814L378.627 52.787C306.327 105.616 262.981 192.665 251.173 284.153C239.364 375.641 259.098 471.528 312.907 542.021L312.908 542.022C348.898 589.67 398.426 626.101 452.776 650.359C472.532 657.785 496.782 652.146 510.896 636.293L510.901 636.288L510.906 636.283C523.272 623.673 528.067 604.571 524.326 587.41C521.029 574.483 513.392 562.316 502.276 554.74C496.641 551.237 490.733 548.247 484.812 545.251C484.263 544.973 483.715 544.696 483.167 544.418C476.703 541.14 470.255 537.799 464.194 533.727C442.19 520.519 422.499 503.598 405.872 484.167L405.87 484.164C360.849 430.425 344.225 356.646 355 288.212C365.775 219.777 403.955 156.652 468.584 124.252C502.53 106.608 543.404 104.903 579.594 116.257C623.626 128.517 661.313 158.709 686.434 196.474L686.438 196.48C702.51 222.083 714.788 252.088 712.575 282.923C712.575 282.924 712.575 282.925 712.575 282.926L712.277 282.904C711.324 298.603 702.342 314.301 687.339 320.319L378.854 52.5271ZM378.854 52.5271C433.752 11.038 505.697 -8.2623 573.787 3.88934L573.787 3.88957L573.799 3.89117C661.458 16.0147 739.909 72.4781 784.675 147.989C804.879 182.916 818.91 221.992 821.616 262.411C823.57 294.412 817.607 327.306 802.283 355.637L802.283 355.637C785.959 385.968 758.617 410.094 726.47 422.506L726.461 422.51C694.824 435.97 659.213 435.576 625.718 430.364L625.716 430.364C573.776 422.646 524.734 402.9 476.969 381.736L476.966 381.735C455.348 372.464 433.592 361.917 412.044 351.47C402.302 346.747 392.601 342.044 382.976 337.489C384.431 313.278 386.598 295.871 390.564 279.747C394.521 263.656 400.272 248.832 408.905 229.787C421.014 235.416 433.397 241.402 445.827 247.412C446.827 247.895 447.826 248.378 448.826 248.861C462.355 255.4 475.918 261.934 489.218 268.029L489.22 268.03C493.231 269.827 497.243 271.632 501.258 273.439C544.64 292.966 588.352 312.64 635.094 322.518L635.107 322.52C635.544 322.592 635.982 322.666 636.422 322.739C653.198 325.541 671.522 328.602 687.462 320.592L378.854 52.5271ZM218.379 282.248C198.303 281.836 174.707 284.971 157.512 295.994L157.506 295.999C130.695 314.199 111.734 343.358 105.798 375.234L106.092 375.288L105.798 375.234C99.4143 409.652 104.242 445.415 115.393 478.301L115.394 478.304C124.439 503.921 138.71 527.678 157.001 547.769L157.011 547.779C169.117 559.88 182.425 570.722 195.875 581.256L195.876 581.257C240.193 615.471 286.867 646.472 334.238 676.166L334.238 676.166C395.509 714.287 458.243 750.406 524.244 779.904L524.462 780.002L524.604 779.81C566.515 723.681 601.086 662.539 635.501 601.673C636.86 599.268 638.22 596.863 639.58 594.459L639.581 594.458C641.159 591.638 642.738 588.819 644.317 586.001C652.68 571.074 661.04 556.153 669.187 541.09L669.188 541.089C674.407 531.357 680.297 521.443 689.857 515.421L689.868 515.414L689.879 515.406C699.041 508.388 710.708 505.837 722.067 505.286C743.267 505.589 763.527 519.656 771.309 539.352L771.312 539.359C777.497 553.918 776.5 571.177 769.015 585.093L769.278 585.234L769.015 585.093C752.015 616.77 734.245 648.062 716.504 679.303L715.38 681.282L715.379 681.283C680.208 743.57 643.085 804.894 599.344 861.552C597.423 863.962 595.567 866.441 593.714 868.918L593.705 868.93C591.852 871.405 590.001 873.879 588.082 876.287C584.24 881.11 580.133 885.662 575.223 889.426C565.07 895.973 553.048 900.599 540.849 899.554L540.842 899.554C533.955 899.13 527.36 897.371 520.861 895.168C517.648 894.079 514.462 892.882 511.275 891.686L511.166 891.645C507.947 890.436 504.727 889.228 501.488 888.136C434.63 861.565 371.929 825.767 310.216 789.007C264.156 760.872 218.552 731.837 174.505 700.546L174.504 700.546C140.789 676.775 107.541 652.062 78.3579 622.843C39.8625 581.106 13.4447 528.646 1.46364 473.227L1.46347 473.226C-12.1223 411.19 -7.20552 343.508 23.2607 287.01C40.3025 256.399 63.4551 228.802 92.3129 208.72C121.016 188.943 158.696 176.722 193.569 174.468L193.58 174.467C212.38 172.533 231.28 173.004 249.991 175.249C240.111 186.212 231.97 203.687 226.417 222.994C220.827 242.433 217.851 263.765 218.379 282.248Z"
                            stroke="#FFCCCE" stroke-width="0.596746" />
                    </svg></div> -->

                    <svg width="823" height="857" viewBox="0 0 823 857" fill="none" xmlns="http://www.w3.org/2000/svg">
<path d="M378.854 52.5271L378.909 52.5814L378.627 52.787C306.327 105.616 262.981 192.665 251.173 284.153C239.364 375.641 259.098 471.528 312.907 542.021L312.908 542.022C348.898 589.67 398.426 626.101 452.776 650.359C472.532 657.785 496.782 652.146 510.896 636.293L510.901 636.288L510.906 636.283C523.272 623.673 528.067 604.571 524.326 587.41C521.029 574.483 513.392 562.316 502.276 554.74C496.641 551.237 490.733 548.247 484.812 545.251C484.263 544.973 483.715 544.696 483.167 544.418C476.703 541.14 470.255 537.799 464.194 533.727C442.19 520.519 422.499 503.598 405.872 484.167L405.87 484.164C360.849 430.425 344.225 356.646 355 288.212C365.775 219.777 403.955 156.652 468.584 124.252C502.53 106.608 543.404 104.903 579.594 116.257C623.626 128.517 661.313 158.709 686.434 196.474L686.438 196.48C702.51 222.083 714.788 252.088 712.575 282.923C712.575 282.924 712.575 282.925 712.575 282.926L712.277 282.904C711.324 298.603 702.342 314.301 687.339 320.319L378.854 52.5271ZM378.854 52.5271C433.752 11.038 505.697 -8.2623 573.787 3.88934L573.787 3.88957L573.799 3.89117C661.458 16.0147 739.909 72.4781 784.675 147.989C804.879 182.916 818.91 221.992 821.616 262.411C823.57 294.412 817.607 327.306 802.283 355.637L802.283 355.637C785.959 385.968 758.617 410.094 726.47 422.506L726.461 422.51C694.824 435.97 659.213 435.576 625.718 430.364L625.716 430.364C573.776 422.646 524.734 402.9 476.969 381.736L476.966 381.735C455.348 372.464 433.592 361.917 412.044 351.47C402.302 346.747 392.601 342.044 382.976 337.489C384.431 313.278 386.598 295.871 390.564 279.747C394.521 263.656 400.272 248.832 408.905 229.787C421.014 235.416 433.397 241.402 445.827 247.412C446.827 247.895 447.826 248.378 448.826 248.861C462.355 255.4 475.918 261.934 489.218 268.029L489.22 268.03C493.231 269.827 497.243 271.632 501.258 273.439C544.64 292.966 588.352 312.64 635.094 322.518L635.107 322.52C635.544 322.592 635.982 322.666 636.422 322.739C653.198 325.541 671.522 328.602 687.462 320.592L378.854 52.5271ZM218.379 282.248C198.303 281.836 174.707 284.971 157.512 295.994L157.506 295.999C130.695 314.199 111.734 343.358 105.798 375.234L106.092 375.288L105.798 375.234C99.4143 409.652 104.242 445.415 115.393 478.301L115.394 478.304C124.439 503.921 138.71 527.678 157.001 547.769L157.011 547.779C169.117 559.88 182.425 570.722 195.875 581.256L195.876 581.257C240.193 615.471 286.867 646.472 334.238 676.166L334.238 676.166C395.509 714.287 458.243 750.406 524.244 779.904L524.462 780.002L524.604 779.81C566.515 723.681 601.086 662.539 635.501 601.673C636.86 599.268 638.22 596.863 639.58 594.459L639.581 594.458C641.159 591.638 642.738 588.819 644.317 586.001C652.68 571.074 661.04 556.153 669.187 541.09L669.188 541.089C674.407 531.357 680.297 521.443 689.857 515.421L689.868 515.414L689.879 515.406C699.041 508.388 710.708 505.837 722.067 505.286C743.267 505.589 763.527 519.656 771.309 539.352L771.312 539.359C777.497 553.918 776.5 571.177 769.015 585.093L769.278 585.234L769.015 585.093C752.015 616.77 734.245 648.062 716.504 679.303L715.38 681.282L715.379 681.283C680.208 743.57 643.085 804.894 599.344 861.552C597.423 863.962 595.567 866.441 593.714 868.918L593.705 868.93C591.852 871.405 590.001 873.879 588.082 876.287C584.24 881.11 580.133 885.662 575.223 889.426C565.07 895.973 553.048 900.599 540.849 899.554L540.842 899.554C533.955 899.13 527.36 897.371 520.861 895.168C517.648 894.079 514.462 892.882 511.275 891.686L511.166 891.645C507.947 890.436 504.727 889.228 501.488 888.136C434.63 861.565 371.929 825.767 310.216 789.007C264.156 760.872 218.552 731.837 174.505 700.546L174.504 700.546C140.789 676.775 107.541 652.062 78.3579 622.843C39.8625 581.106 13.4447 528.646 1.46364 473.227L1.46347 473.226C-12.1223 411.19 -7.20552 343.508 23.2607 287.01C40.3025 256.399 63.4551 228.802 92.3129 208.72C121.016 188.943 158.696 176.722 193.569 174.468L193.58 174.467C212.38 172.533 231.28 173.004 249.991 175.249C240.111 186.212 231.97 203.687 226.417 222.994C220.827 242.433 217.851 263.765 218.379 282.248Z" stroke="#FFCCCE" stroke-width="0.596746"/>
</svg>