 <svg width="100" height="43" viewBox="0 0 100 43" fill="none" xmlns="http://www.w3.org/2000/svg" style="margin-left: 4%;
        height: 14%;">
                <path
                    d="M50.5471 15.6164H44.6505C44.7041 16.349 44.9855 16.9431 45.4948 17.3988C46.004 17.8455 46.6473 18.0689 47.4245 18.0689C47.8623 18.0689 48.2644 17.9929 48.6307 17.841C48.997 17.6802 49.3141 17.4479 49.5822 17.1442L50.1182 17.7606C49.8055 18.1359 49.4124 18.4218 48.9389 18.6183C48.4743 18.8149 47.9606 18.9131 47.3977 18.9131C46.6741 18.9131 46.0308 18.7613 45.4679 18.4575C44.914 18.1448 44.4807 17.716 44.168 17.171C43.8553 16.626 43.699 16.0095 43.699 15.3216C43.699 14.6337 43.8464 14.0172 44.1412 13.4722C44.445 12.9272 44.856 12.5028 45.3741 12.1991C45.9013 11.8953 46.4909 11.7434 47.1431 11.7434C47.7953 11.7434 48.3805 11.8953 48.8987 12.1991C49.4169 12.5028 49.8234 12.9272 50.1182 13.4722C50.413 14.0083 50.5605 14.6247 50.5605 15.3216L50.5471 15.6164ZM47.1431 12.5609C46.4641 12.5609 45.8923 12.7798 45.4277 13.2176C44.9721 13.6464 44.713 14.2093 44.6505 14.9061H49.6492C49.5866 14.2093 49.3231 13.6464 48.8585 13.2176C48.4028 12.7798 47.8311 12.5609 47.1431 12.5609Z"
                    fill="white" />
                <path
                    d="M58.2897 11.797L55.1538 18.8461H54.1755L51.053 11.797H52.0447L54.6847 17.8008L57.3516 11.797H58.2897Z"
                    fill="white" />
                <path
                    d="M65.5712 15.6164H59.6746C59.7282 16.349 60.0097 16.9431 60.5189 17.3988C61.0282 17.8455 61.6714 18.0689 62.4487 18.0689C62.8865 18.0689 63.2885 17.9929 63.6548 17.841C64.0211 17.6802 64.3383 17.4479 64.6063 17.1442L65.1424 17.7606C64.8297 18.1359 64.4366 18.4218 63.9631 18.6183C63.4985 18.8149 62.9848 18.9131 62.4219 18.9131C61.6982 18.9131 61.055 18.7613 60.4921 18.4575C59.9382 18.1448 59.5049 17.716 59.1922 17.171C58.8795 16.626 58.7231 16.0095 58.7231 15.3216C58.7231 14.6337 58.8706 14.0172 59.1654 13.4722C59.4691 12.9272 59.8801 12.5028 60.3983 12.1991C60.9254 11.8953 61.5151 11.7434 62.1673 11.7434C62.8195 11.7434 63.4047 11.8953 63.9229 12.1991C64.441 12.5028 64.8475 12.9272 65.1424 13.4722C65.4372 14.0083 65.5846 14.6247 65.5846 15.3216L65.5712 15.6164ZM62.1673 12.5609C61.4883 12.5609 60.9165 12.7798 60.4519 13.2176C59.9963 13.6464 59.7372 14.2093 59.6746 14.9061H64.6733C64.6108 14.2093 64.3472 13.6464 63.8827 13.2176C63.427 12.7798 62.8552 12.5609 62.1673 12.5609Z"
                    fill="white" />
                <path
                    d="M68.4326 13.1774C68.656 12.7039 68.9865 12.3465 69.4243 12.1053C69.871 11.864 70.4205 11.7434 71.0727 11.7434V12.6681L70.8449 12.6547C70.1033 12.6547 69.5226 12.8825 69.1027 13.3382C68.6828 13.7938 68.4728 14.4326 68.4728 15.2546V18.8461H67.5213V11.797H68.4326V13.1774Z"
                    fill="white" />
                <path
                    d="M79.0199 11.797L75.4953 19.6904C75.2094 20.3516 74.8789 20.8206 74.5036 21.0976C74.1284 21.3745 73.6772 21.513 73.1501 21.513C72.8106 21.513 72.4934 21.4594 72.1986 21.3522C71.9038 21.245 71.6492 21.0842 71.4347 20.8697L71.877 20.1595C72.2343 20.5168 72.6632 20.6955 73.1635 20.6955C73.4851 20.6955 73.7576 20.6062 73.981 20.4275C74.2133 20.2488 74.4277 19.945 74.6243 19.5162L74.9325 18.8327L71.7832 11.797H72.7749L75.4283 17.7874L78.0818 11.797H79.0199Z"
                    fill="white" />
                <path
                    d="M48.041 24.6796C48.7021 24.6796 49.3007 24.8314 49.8368 25.1352C50.3728 25.43 50.7927 25.8499 51.0965 26.3949C51.4003 26.9399 51.5522 27.5609 51.5522 28.2577C51.5522 28.9635 51.4003 29.5889 51.0965 30.1339C50.7927 30.6789 50.3728 31.1033 49.8368 31.407C49.3097 31.7019 48.7111 31.8493 48.041 31.8493C47.4692 31.8493 46.951 31.7331 46.4865 31.5008C46.0308 31.2596 45.6556 30.9112 45.3607 30.4555V34.3821H44.4092V24.7332H45.3205V26.1269C45.6064 25.6623 45.9817 25.305 46.4462 25.0548C46.9198 24.8046 47.4513 24.6796 48.041 24.6796ZM47.974 31.005C48.4654 31.005 48.9121 30.8933 49.3141 30.67C49.7162 30.4377 50.0289 30.1116 50.2522 29.6917C50.4845 29.2718 50.6007 28.7938 50.6007 28.2577C50.6007 27.7217 50.4845 27.2482 50.2522 26.8372C50.0289 26.4173 49.7162 26.0912 49.3141 25.8589C48.9121 25.6266 48.4654 25.5104 47.974 25.5104C47.4737 25.5104 47.0225 25.6266 46.6205 25.8589C46.2274 26.0912 45.9147 26.4173 45.6824 26.8372C45.459 27.2482 45.3473 27.7217 45.3473 28.2577C45.3473 28.7938 45.459 29.2718 45.6824 29.6917C45.9147 30.1116 46.2274 30.4377 46.6205 30.67C47.0225 30.8933 47.4737 31.005 47.974 31.005Z"
                    fill="white" />
                <path
                    d="M54.4031 26.1135C54.6264 25.64 54.957 25.2826 55.3948 25.0414C55.8415 24.8002 56.391 24.6796 57.0432 24.6796V25.6043L56.8153 25.5909C56.0738 25.5909 55.4931 25.8187 55.0732 26.2743C54.6532 26.73 54.4433 27.3688 54.4433 28.1907V31.7823H53.4918V24.7332H54.4031V26.1135Z"
                    fill="white" />
                <path
                    d="M61.5818 31.8493C60.9028 31.8493 60.2908 31.6974 59.7458 31.3936C59.2008 31.0809 58.772 30.6521 58.4593 30.1071C58.1466 29.5621 57.9902 28.9457 57.9902 28.2577C57.9902 27.5698 58.1466 26.9533 58.4593 26.4083C58.772 25.8633 59.2008 25.439 59.7458 25.1352C60.2908 24.8314 60.9028 24.6796 61.5818 24.6796C62.2608 24.6796 62.8728 24.8314 63.4178 25.1352C63.9628 25.439 64.3872 25.8633 64.6909 26.4083C65.0036 26.9533 65.16 27.5698 65.16 28.2577C65.16 28.9457 65.0036 29.5621 64.6909 30.1071C64.3872 30.6521 63.9628 31.0809 63.4178 31.3936C62.8728 31.6974 62.2608 31.8493 61.5818 31.8493ZM61.5818 31.005C62.0821 31.005 62.5288 30.8933 62.9219 30.67C63.324 30.4377 63.6367 30.1116 63.86 29.6917C64.0834 29.2718 64.1951 28.7938 64.1951 28.2577C64.1951 27.7217 64.0834 27.2437 63.86 26.8238C63.6367 26.4039 63.324 26.0822 62.9219 25.8589C62.5288 25.6266 62.0821 25.5104 61.5818 25.5104C61.0815 25.5104 60.6303 25.6266 60.2283 25.8589C59.8352 26.0822 59.5225 26.4039 59.2902 26.8238C59.0668 27.2437 58.9551 27.7217 58.9551 28.2577C58.9551 28.7938 59.0668 29.2718 59.2902 29.6917C59.5225 30.1116 59.8352 30.4377 60.2283 30.67C60.6303 30.8933 61.0815 31.005 61.5818 31.005Z"
                    fill="white" />
                <path
                    d="M70.7343 24.6796C71.3954 24.6796 71.994 24.8314 72.5301 25.1352C73.0661 25.43 73.486 25.8499 73.7898 26.3949C74.0936 26.9399 74.2455 27.5609 74.2455 28.2577C74.2455 28.9635 74.0936 29.5889 73.7898 30.1339C73.486 30.6789 73.0661 31.1033 72.5301 31.407C72.003 31.7019 71.4044 31.8493 70.7343 31.8493C70.1625 31.8493 69.6443 31.7331 69.1797 31.5008C68.7241 31.2596 68.3489 30.9112 68.054 30.4555V34.3821H67.1025V24.7332H68.0138V26.1269C68.2997 25.6623 68.675 25.305 69.1395 25.0548C69.6131 24.8046 70.1446 24.6796 70.7343 24.6796ZM70.6673 31.005C71.1587 31.005 71.6054 30.8933 72.0074 30.67C72.4095 30.4377 72.7222 30.1116 72.9455 29.6917C73.1778 29.2718 73.294 28.7938 73.294 28.2577C73.294 27.7217 73.1778 27.2482 72.9455 26.8372C72.7222 26.4173 72.4095 26.0912 72.0074 25.8589C71.6054 25.6266 71.1587 25.5104 70.6673 25.5104C70.167 25.5104 69.7158 25.6266 69.3138 25.8589C68.9206 26.0912 68.6079 26.4173 68.3757 26.8372C68.1523 27.2482 68.0406 27.7217 68.0406 28.2577C68.0406 28.7938 68.1523 29.2718 68.3757 29.6917C68.6079 30.1116 68.9206 30.4377 69.3138 30.67C69.7158 30.8933 70.167 31.005 70.6673 31.005Z"
                    fill="white" />
                <path
                    d="M79.0664 31.8493C78.3874 31.8493 77.7754 31.6974 77.2304 31.3936C76.6854 31.0809 76.2566 30.6521 75.9439 30.1071C75.6312 29.5621 75.4748 28.9457 75.4748 28.2577C75.4748 27.5698 75.6312 26.9533 75.9439 26.4083C76.2566 25.8633 76.6854 25.439 77.2304 25.1352C77.7754 24.8314 78.3874 24.6796 79.0664 24.6796C79.7454 24.6796 80.3574 24.8314 80.9024 25.1352C81.4473 25.439 81.8717 25.8633 82.1755 26.4083C82.4882 26.9533 82.6445 27.5698 82.6445 28.2577C82.6445 28.9457 82.4882 29.5621 82.1755 30.1071C81.8717 30.6521 81.4473 31.0809 80.9024 31.3936C80.3574 31.6974 79.7454 31.8493 79.0664 31.8493ZM79.0664 31.005C79.5667 31.005 80.0134 30.8933 80.4065 30.67C80.8085 30.4377 81.1212 30.1116 81.3446 29.6917C81.568 29.2718 81.6796 28.7938 81.6796 28.2577C81.6796 27.7217 81.568 27.2437 81.3446 26.8238C81.1212 26.4039 80.8085 26.0822 80.4065 25.8589C80.0134 25.6266 79.5667 25.5104 79.0664 25.5104C78.5661 25.5104 78.1149 25.6266 77.7128 25.8589C77.3197 26.0822 77.007 26.4039 76.7747 26.8238C76.5514 27.2437 76.4397 27.7217 76.4397 28.2577C76.4397 28.7938 76.5514 29.2718 76.7747 29.6917C77.007 30.1116 77.3197 30.4377 77.7128 30.67C78.1149 30.8933 78.5661 31.005 79.0664 31.005Z"
                    fill="white" />
                <path
                    d="M86.4767 31.8493C85.9049 31.8493 85.3554 31.7689 84.8283 31.6081C84.3101 31.4383 83.9036 31.2284 83.6088 30.9782L84.0376 30.2277C84.3325 30.46 84.7032 30.6521 85.15 30.804C85.5967 30.9469 86.0612 31.0184 86.5437 31.0184C87.187 31.0184 87.6605 30.9201 87.9642 30.7236C88.2769 30.5181 88.4333 30.2322 88.4333 29.8659C88.4333 29.6068 88.3484 29.4058 88.1787 29.2628C88.0089 29.1109 87.7945 28.9993 87.5354 28.9278C87.2763 28.8474 86.9323 28.7714 86.5035 28.7C85.9317 28.5928 85.4716 28.4855 85.1232 28.3783C84.7747 28.2622 84.4754 28.0701 84.2253 27.8021C83.984 27.534 83.8634 27.1633 83.8634 26.6898C83.8634 26.1001 84.1091 25.6177 84.6005 25.2424C85.0919 24.8672 85.7753 24.6796 86.6509 24.6796C87.1065 24.6796 87.5622 24.7421 88.0178 24.8672C88.4735 24.9833 88.8487 25.1397 89.1436 25.3362L88.7281 26.1001C88.1474 25.6981 87.455 25.497 86.6509 25.497C86.0434 25.497 85.5833 25.6043 85.2706 25.8187C84.9668 26.0331 84.8149 26.3145 84.8149 26.663C84.8149 26.931 84.8998 27.1454 85.0695 27.3062C85.2482 27.467 85.4671 27.5877 85.7262 27.6681C85.9853 27.7395 86.3427 27.8155 86.7983 27.8959C87.3612 28.0031 87.8124 28.1103 88.1519 28.2175C88.4914 28.3247 88.7817 28.5079 89.0229 28.767C89.2642 29.0261 89.3848 29.3834 89.3848 29.8391C89.3848 30.4555 89.1257 30.9469 88.6075 31.3132C88.0983 31.6706 87.388 31.8493 86.4767 31.8493Z"
                    fill="white" />
                <path
                    d="M93.6097 24.6796C94.5299 24.6796 95.2357 24.9118 95.7271 25.3764C96.2185 25.8321 96.4641 26.5111 96.4641 27.4134V31.7823H95.5529V30.6834C95.3384 31.0497 95.0213 31.3356 94.6014 31.5411C94.1904 31.7465 93.699 31.8493 93.1272 31.8493C92.341 31.8493 91.7156 31.6617 91.251 31.2864C90.7864 30.9112 90.5542 30.4153 90.5542 29.7989C90.5542 29.2003 90.7686 28.7178 91.1974 28.3515C91.6352 27.9852 92.3276 27.8021 93.2746 27.8021H95.5126V27.3732C95.5126 26.7657 95.3429 26.3056 95.0034 25.9929C94.6639 25.6713 94.168 25.5104 93.5158 25.5104C93.0691 25.5104 92.6403 25.5864 92.2293 25.7383C91.8183 25.8812 91.4654 26.0822 91.1706 26.3413L90.7418 25.6311C91.0991 25.3273 91.528 25.095 92.0283 24.9342C92.5286 24.7644 93.0557 24.6796 93.6097 24.6796ZM93.2746 31.0988C93.8107 31.0988 94.2708 30.9782 94.655 30.737C95.0391 30.4868 95.325 30.1294 95.5126 29.6649V28.5123H93.3014C92.0953 28.5123 91.4922 28.9323 91.4922 29.7721C91.4922 30.183 91.6486 30.5091 91.9613 30.7504C92.274 30.9827 92.7118 31.0988 93.2746 31.0988Z"
                    fill="white" />
                <path d="M99.0485 21.8385H100V31.7823H99.0485V21.8385Z" fill="white" />
                <path fill-rule="evenodd" clip-rule="evenodd"
                    d="M10.5745 13.3038C9.62756 13.2825 8.51295 13.429 7.70296 13.9485C6.4443 14.8033 5.55402 16.173 5.27537 17.6702C4.97546 19.2878 5.20216 20.9691 5.72641 22.5159C6.15148 23.7202 6.82213 24.8372 7.68171 25.7818C8.25082 26.3509 8.87661 26.861 9.50949 27.3569C11.5947 28.9674 13.7908 30.4268 16.0201 31.8248C18.9034 33.6195 21.8553 35.3198 24.9606 36.7083C27.0103 33.9619 28.687 30.9605 30.3707 27.9827C30.8383 27.1467 31.3082 26.3131 31.764 25.4701C32.0096 25.012 32.2882 24.542 32.7416 24.2563C33.1761 23.9233 33.7287 23.8029 34.2648 23.7769C35.2684 23.7911 36.2272 24.457 36.5955 25.3898C36.8884 26.0793 36.8411 26.8964 36.4869 27.5553C35.6698 29.0784 34.815 30.5827 33.9625 32.0846C32.3071 35.0175 30.5596 37.9056 28.5004 40.5741C28.1391 41.0275 27.8274 41.5328 27.3622 41.8894C26.8828 42.1987 26.3137 42.4184 25.7351 42.3688C25.0834 42.3286 24.4883 42.0358 23.879 41.8303C20.7312 40.5788 17.7794 38.8927 14.8747 37.1617C12.7069 35.8369 10.5603 34.4697 8.48697 32.9961C6.90006 31.8768 5.33441 30.7125 3.96003 29.3358C2.14642 27.3687 0.901927 24.8962 0.337536 22.2845C-0.302423 19.361 -0.0709984 16.1706 1.36478 13.5069C2.16768 12.064 3.25867 10.7629 4.61888 9.8159C5.972 8.88312 7.74783 8.30692 9.39141 8.20066C10.2864 8.10856 11.1861 8.13217 12.0764 8.2408C11.1342 9.26568 10.5202 11.561 10.5745 13.3062V13.3038Z"
                    fill="white" />
                <path fill-rule="evenodd" clip-rule="evenodd"
                    d="M18.0911 2.47173C20.6792 0.509348 24.075 -0.404541 27.289 0.169296C31.4192 0.740772 35.1149 3.40215 37.2237 6.96088C38.1754 8.60683 38.8366 10.4488 38.9641 12.3545C39.0562 13.8635 38.7752 15.4149 38.0526 16.7515C37.2827 18.1826 35.9934 19.3208 34.4773 19.9065C32.9849 20.5417 31.3059 20.5228 29.7284 20.2772C27.2819 19.9135 24.9724 18.9831 22.7243 17.9866C21.2436 17.3514 19.7488 16.5886 18.2918 15.899C18.4288 13.6084 18.7003 12.6072 19.5198 10.8006C20.7595 11.3768 22.0607 12.0333 23.3123 12.6072C25.5415 13.6061 27.7731 14.664 30.1747 15.1717C30.9823 15.3063 31.8655 15.4669 32.6306 15.082C33.3367 14.7986 33.7594 14.0595 33.8043 13.3203C33.9082 11.8727 33.332 10.4629 32.5763 9.25859C31.3956 7.48277 29.6245 6.06353 27.5558 5.48733C25.8556 4.95363 23.9357 5.03392 22.3417 5.8628C16.268 8.9091 15.1628 17.7339 19.3946 22.7875C20.1762 23.7013 21.1019 24.4972 22.1363 25.1182C22.7054 25.5008 23.3477 25.7464 23.9286 26.1077C24.4552 26.4666 24.8165 27.0428 24.9724 27.6544C25.1495 28.4668 24.9228 29.3712 24.3372 29.9687C23.6689 30.7196 22.5212 30.9865 21.586 30.6346C19.0262 29.4917 16.6931 27.7749 14.9975 25.5291C9.92747 18.8839 11.2806 7.45443 18.0934 2.47409L18.0911 2.47173Z"
                    fill="white" />
            </svg>